<?xml version="1.0" encoding="UTF-8"?><svg xmlns="http://www.w3.org/2000/svg" xmlns:xlink="http://www.w3.org/1999/xlink"><style>:root>svg {display: none}:root>svg:target {display: block}</style>
<svg xmlns="http://www.w3.org/2000/svg" fill="#000000" viewBox="0 0 24 24" id="account"><path d="M12 2C6.48 2 2 6.48 2 12s4.48 10 10 10 10-4.48 10-10S17.52 2 12 2zm0 3c1.66 0 3 1.34 3 3s-1.34 3-3 3-3-1.34-3-3 1.34-3 3-3zm0 14.2c-2.5 0-4.71-1.28-6-3.22.03-1.99 4-3.08 6-3.08 1.99 0 5.97 1.09 6 3.08-1.29 1.94-3.5 3.22-6 3.22z"></path></svg>
<svg viewBox="0 0 10 6" fill="none" xmlns="http://www.w3.org/2000/svg" id="arrowDownChevron">
<path d="M0.707108 0.8875L0.8875 0.707107L4.64645 4.46605L5 4.81961L5.35355 4.46605L9.1125 0.707107L9.29289 0.8875L5 5.18039L0.707108 0.8875Z" fill="#E40000" stroke="#E40000"></path>
</svg>
<svg viewBox="0 0 24 24" fill="none" xmlns="http://www.w3.org/2000/svg" id="chat">
<path fill-rule="evenodd" clip-rule="evenodd" d="M12 2.75C6.89137 2.75 2.75 6.89137 2.75 12C2.75 13.4811 3.09753 14.8788 3.7148 16.1181C3.96254 16.6155 4.05794 17.2103 3.90163 17.7945L3.30602 20.0205C3.19663 20.4293 3.57066 20.8034 3.97949 20.694L6.20553 20.0984C6.78973 19.9421 7.38451 20.0375 7.88191 20.2852C9.12121 20.9025 10.5189 21.25 12 21.25C17.1086 21.25 21.25 17.1086 21.25 12C21.25 6.89137 17.1086 2.75 12 2.75ZM1.25 12C1.25 6.06294 6.06294 1.25 12 1.25C17.9371 1.25 22.75 6.06294 22.75 12C22.75 17.9371 17.9371 22.75 12 22.75C10.2817 22.75 8.65552 22.3463 7.21315 21.6279C6.99791 21.5207 6.77814 21.4979 6.59324 21.5474L4.3672 22.143C2.84337 22.5507 1.44927 21.1566 1.857 19.6328L2.4526 17.4068C2.50208 17.2219 2.47933 17.0021 2.37213 16.7869C1.65371 15.3445 1.25 13.7183 1.25 12ZM7.25 10.5C7.25 10.0858 7.58579 9.75 8 9.75H16C16.4142 9.75 16.75 10.0858 16.75 10.5C16.75 10.9142 16.4142 11.25 16 11.25H8C7.58579 11.25 7.25 10.9142 7.25 10.5ZM7.25 14C7.25 13.5858 7.58579 13.25 8 13.25H13.5C13.9142 13.25 14.25 13.5858 14.25 14C14.25 14.4142 13.9142 14.75 13.5 14.75H8C7.58579 14.75 7.25 14.4142 7.25 14Z" fill="#1C274C"></path>
</svg>
<svg viewBox="0 0 22 22" fill="none" xmlns="http://www.w3.org/2000/svg" id="close">
<path d="M21 21L1 1M21 1L1 21" stroke="black" stroke-width="2" stroke-linecap="round"></path>
</svg>
<svg viewBox="0 0 48 48" xmlns="http://www.w3.org/2000/svg" id="collapse">
  <title>collapse-fullscreen</title>
  <g id="Layer_2" data-name="Layer 2">
    <g id="invisible_box" data-name="invisible box">
      <rect width="48" height="48" fill="none"></rect>
    </g>
    <g id="icons_Q2" data-name="icons Q2">
      <g>
        <path d="M8,26a2,2,0,0,0-2,2.3A2.1,2.1,0,0,0,8.1,30h7.1L4.7,40.5a2,2,0,0,0-.2,2.8A1.8,1.8,0,0,0,6,44a2,2,0,0,0,1.4-.6L18,32.8v7.1A2.1,2.1,0,0,0,19.7,42,2,2,0,0,0,22,40V28a2,2,0,0,0-2-2Z"></path>
        <path d="M43.7,4.8a2,2,0,0,0-3.1-.2L30,15.2V8.1A2.1,2.1,0,0,0,28.3,6,2,2,0,0,0,26,8V20a2,2,0,0,0,2,2H39.9A2.1,2.1,0,0,0,42,20.3,2,2,0,0,0,40,18H32.8L43.4,7.5A2.3,2.3,0,0,0,43.7,4.8Z"></path>
      </g>
    </g>
  </g>
</svg>
<svg fill="#000000" viewBox="0 0 24 24" xmlns="http://www.w3.org/2000/svg" id="expand"><path d="M3,20V12a1,1,0,0,1,2,0v5.585L17.586,5H12a1,1,0,0,1,0-2h8a1,1,0,0,1,1,1v8a1,1,0,0,1-2,0V6.414L6.414,19H12a1,1,0,0,1,0,2H4A1,1,0,0,1,3,20Z"></path></svg>
<svg viewBox="0 0 24 24" fill="none" xmlns="http://www.w3.org/2000/svg" id="facebook">
<path d="M9.19776 21.5H13.1978V13.49H16.8018L17.1978 9.51H13.1978V7.5C13.1978 7.23478 13.3031 6.98043 13.4907 6.79289C13.6782 6.60536 13.9325 6.5 14.1978 6.5H17.1978V2.5H14.1978C12.8717 2.5 11.5999 3.02678 10.6622 3.96447C9.72454 4.90215 9.19776 6.17392 9.19776 7.5V9.51H7.19776L6.80176 13.49H9.19776V21.5Z" fill="white"></path>
</svg>
<svg viewBox="0 0 24 24" fill="none" xmlns="http://www.w3.org/2000/svg" id="instagram">
<path d="M13.0281 2.00123C13.7578 1.99843 14.4876 2.00576 15.2171 2.02323L15.4111 2.03023C15.6351 2.03823 15.8561 2.04823 16.1231 2.06023C17.1871 2.11023 17.9131 2.27823 18.5501 2.52523C19.2101 2.77923 19.7661 3.12323 20.3221 3.67923C20.8305 4.17884 21.2239 4.78318 21.4751 5.45023C21.7221 6.08723 21.8901 6.81423 21.9401 7.87823C21.9521 8.14423 21.9621 8.36623 21.9701 8.59023L21.9761 8.78423C21.9939 9.51342 22.0015 10.2428 21.9991 10.9722L22.0001 11.7182V13.0282C22.0026 13.758 21.9949 14.4877 21.9771 15.2172L21.9711 15.4112C21.9631 15.6352 21.9531 15.8562 21.9411 16.1232C21.8911 17.1872 21.7211 17.9132 21.4751 18.5502C21.2247 19.218 20.8312 19.8228 20.3221 20.3222C19.8221 20.8306 19.2174 21.224 18.5501 21.4752C17.9131 21.7222 17.1871 21.8902 16.1231 21.9402C15.8561 21.9522 15.6351 21.9622 15.4111 21.9702L15.2171 21.9762C14.4876 21.994 13.7578 22.0017 13.0281 21.9992L12.2821 22.0002H10.9731C10.2434 22.0027 9.51361 21.995 8.78409 21.9772L8.59009 21.9712C8.3527 21.9626 8.11536 21.9526 7.87809 21.9412C6.81409 21.8912 6.08809 21.7212 5.45009 21.4752C4.78277 21.2246 4.17833 20.8311 3.67909 20.3222C3.17013 19.8225 2.77631 19.2178 2.52509 18.5502C2.27809 17.9132 2.11009 17.1872 2.06009 16.1232C2.04895 15.8859 2.03895 15.6486 2.03009 15.4112L2.02509 15.2172C2.00665 14.4877 1.99832 13.758 2.00009 13.0282V10.9722C1.9973 10.2428 2.00463 9.51343 2.02209 8.78423L2.02909 8.59023C2.03709 8.36623 2.04709 8.14423 2.05909 7.87823C2.10909 6.81323 2.27709 6.08823 2.52409 5.45023C2.77546 4.78285 3.17005 4.17868 3.68009 3.68023C4.17898 3.17098 4.78305 2.7768 5.45009 2.52523C6.08809 2.27823 6.81309 2.11023 7.87809 2.06023L8.59009 2.03023L8.78409 2.02523C9.51327 2.0068 10.2427 1.99847 10.9721 2.00023L13.0281 2.00123ZM12.0001 7.00123C11.3376 6.99186 10.6798 7.11425 10.0651 7.3613C9.45029 7.60834 8.89074 7.97511 8.41893 8.44029C7.94713 8.90546 7.57249 9.45977 7.31678 10.071C7.06106 10.6822 6.92938 11.3382 6.92938 12.0007C6.92938 12.6633 7.06106 13.3192 7.31678 13.9305C7.57249 14.5417 7.94713 15.096 8.41893 15.5612C8.89074 16.0264 9.45029 16.3931 10.0651 16.6402C10.6798 16.8872 11.3376 17.0096 12.0001 17.0002C13.3262 17.0002 14.5979 16.4734 15.5356 15.5358C16.4733 14.5981 17.0001 13.3263 17.0001 12.0002C17.0001 10.6741 16.4733 9.40238 15.5356 8.4647C14.5979 7.52701 13.3262 7.00123 12.0001 7.00123ZM12.0001 9.00123C12.3986 8.99389 12.7946 9.06603 13.1649 9.21344C13.5352 9.36085 13.8724 9.58057 14.1569 9.85978C14.4413 10.139 14.6673 10.4721 14.8215 10.8396C14.9758 11.2071 15.0553 11.6016 15.0554 12.0002C15.0554 12.3988 14.9761 12.7934 14.8219 13.1609C14.6678 13.5285 14.4419 13.8617 14.1576 14.141C13.8732 14.4203 13.5361 14.6401 13.1658 14.7876C12.7955 14.9352 12.3996 15.0074 12.0011 15.0002C11.2054 15.0002 10.4424 14.6842 9.87977 14.1216C9.31716 13.5589 9.00109 12.7959 9.00109 12.0002C9.00109 11.2046 9.31716 10.4415 9.87977 9.87891C10.4424 9.3163 11.2054 9.00023 12.0011 9.00023L12.0001 9.00123ZM17.2501 5.50123C16.9275 5.51414 16.6224 5.65138 16.3987 5.8842C16.175 6.11702 16.0501 6.42736 16.0501 6.75023C16.0501 7.0731 16.175 7.38344 16.3987 7.61626C16.6224 7.84908 16.9275 7.98632 17.2501 7.99923C17.5816 7.99923 17.8996 7.86753 18.134 7.63311C18.3684 7.39869 18.5001 7.08075 18.5001 6.74923C18.5001 6.41771 18.3684 6.09977 18.134 5.86535C17.8996 5.63093 17.5816 5.49923 17.2501 5.49923V5.50123Z" fill="white"></path>
</svg>
<svg xmlns="http://www.w3.org/2000/svg" viewBox="0 0 23 22" fill="none" id="like">
  <path d="M13.0519 2.26463C14.729 -0.604814 18.8094 0.143511 19.4379 3.28069C19.8965 5.56572 18.0691 7.27523 16.4155 8.65025C14.987 9.83887 13.9889 10.6549 13.4213 11.0984C13.0527 11.3869 12.8422 11.1637 12.5589 10.9405C10.8888 9.62552 9.10448 8.30464 7.6778 6.74865C7.18007 6.20651 7.88754 5.62579 8.28823 6.05669C9.76342 7.64234 11.4045 8.87348 13.0605 10.1855C13.0803 10.2018 13.1004 10.2018 13.1208 10.1855C14.1079 9.39684 15.0827 8.59512 16.0453 7.78029C17.4462 6.59365 19.0364 5.11851 18.4487 3.1383C18.0527 1.80333 16.525 0.949686 15.1312 1.54894C14.441 1.84634 13.9417 2.45079 13.6474 3.11457C13.5089 3.4268 13.3712 3.97636 12.8508 3.78279C12.6348 3.70195 12.5933 3.5158 12.526 3.31852C11.6902 0.891096 8.4784 0.593694 7.60346 3.17167C7.42581 3.69528 6.52347 3.50022 6.76843 2.76896C7.18477 1.52669 8.31249 0.613719 9.69612 0.486155C11.1455 0.351916 12.3429 1.10469 13.0104 2.26389C13.0123 2.2675 13.0153 2.27054 13.0189 2.27269C13.0225 2.27484 13.0266 2.27601 13.0309 2.27609C13.0352 2.27616 13.0394 2.27514 13.0431 2.27312C13.0468 2.2711 13.0498 2.26817 13.0519 2.26463Z" fill="#E40000"></path>
  <path d="M12.7885 3.13231C13.5925 1.71723 16.6288 0.367516 17.8291 1.4805C18.4245 2.03257 18.8985 3.75131 18.8383 4.58764C18.763 5.63289 17.1385 7.111 16.4835 7.87201C15.4399 9.08473 13.9716 9.52533 12.7947 10.5577C12.7862 10.565 12.7778 10.565 12.7693 10.5577C12.2592 10.1102 11.7469 9.65976 11.2326 9.20619C10.5659 8.61827 9.32738 8.55009 8.74656 7.872C8.08047 7.09416 7.06454 6.52642 6.728 4.50805C6.39147 2.48973 7.43777 1.95542 7.73725 1.48051C8.76776 -0.154588 11.8275 1.45412 12.7748 3.13231C12.7755 3.13354 12.7765 3.13457 12.7777 3.13528C12.779 3.13599 12.7803 3.13636 12.7817 3.13636C12.7831 3.13636 12.7844 3.13599 12.7856 3.13528C12.7868 3.13457 12.7878 3.13354 12.7885 3.13231Z" fill="#E40000"></path>
  <path d="M4.3682 19.3789C4.07769 20.0148 3.61061 20.1959 2.91867 20.1967C2.14901 20.1972 1.37885 20.1977 0.608183 20.1982C0.24599 20.1982 0.00452741 20.0928 0.00377285 19.6995C-0.00125762 18.1013 -0.00125762 15.4696 0.00377285 11.8043C0.00452741 11.3647 0.171288 11.2336 0.603656 11.2344C1.40803 11.2354 2.21164 11.2356 3.0145 11.2351C3.74719 11.2351 4.04524 11.4837 4.4014 12.0916C4.41448 12.1143 4.43435 12.1257 4.46101 12.1257C5.54155 12.1257 6.62059 12.1254 7.69811 12.1249C8.17047 12.1249 8.66069 12.2697 9.16877 12.5592C9.91982 12.9867 10.6716 13.4129 11.4242 13.8378C11.5172 13.8904 11.6168 13.9171 11.723 13.9181C12.5641 13.9272 13.4044 13.9298 14.244 13.9257C14.6671 13.9232 14.9774 13.9565 15.1751 14.0258C15.9825 14.3062 16.4285 15.1156 16.3462 15.9744C16.3432 16.0062 16.3568 16.0171 16.387 16.0069C17.5782 15.6012 18.7666 15.193 19.9523 14.7822C20.5414 14.5775 20.9571 14.475 21.1996 14.4745C22.7978 14.4707 23.4324 16.4473 22.3028 17.4697C22.1448 17.6127 21.8963 17.759 21.5573 17.9085C19.0602 19.0116 16.5638 20.1156 14.0682 21.2206C13.4183 21.5086 12.9504 21.6931 12.6647 21.7739C10.9322 22.265 9.46003 21.9232 7.94184 21.0342C7.32812 20.6744 6.71692 20.3109 6.10824 19.9435C5.5325 19.5964 5.04807 19.4357 4.42555 19.3478C4.39889 19.3443 4.37977 19.3546 4.3682 19.3789ZM3.56609 12.5592C3.56534 12.2803 3.30803 12.1196 3.05601 12.1196C2.35375 12.1186 1.64798 12.1221 0.938685 12.1302C0.907999 12.1307 0.892655 12.1464 0.892655 12.1772L0.88662 19.2523C0.88662 19.2852 0.902968 19.3018 0.935666 19.3023C1.6349 19.3119 2.33388 19.3125 3.03261 19.3039C3.25068 19.3008 3.48686 19.2349 3.54949 19.0234C3.63249 18.7377 3.56609 18.117 3.56609 17.835C3.5676 16.0762 3.5676 14.3176 3.56609 12.5592ZM12.1735 14.8117C11.6143 14.8466 11.2906 14.7943 10.7805 14.507C10.0632 14.1028 9.34257 13.7044 8.61869 13.3118C8.25599 13.1148 7.86739 13.0162 7.45288 13.0162C6.4659 13.0157 5.48521 13.016 4.51081 13.017C4.50061 13.017 4.49082 13.0211 4.4836 13.0283C4.47639 13.0356 4.47233 13.0454 4.47233 13.0556V18.3974C4.47228 18.4149 4.47885 18.4318 4.49073 18.4447C4.50261 18.4576 4.51893 18.4656 4.53647 18.4671C6.41308 18.6278 7.69057 20.0815 9.35666 20.7568C10.5957 21.259 11.846 21.2292 13.1076 20.6673C15.8688 19.4365 18.6333 18.2137 21.4011 16.9991C22.4771 16.5269 21.8991 15.0747 20.9265 15.4074C18.9409 16.0855 16.975 16.7654 15.0287 17.447C14.9149 17.4866 14.7952 17.5069 14.6749 17.5069C13.1944 17.5069 11.69 17.5069 10.1618 17.5069C9.40268 17.5069 9.41627 16.6216 10.075 16.6201C11.5016 16.6176 12.9283 16.6161 14.3549 16.6156C14.5893 16.615 14.7611 16.5956 14.8703 16.5572C15.6052 16.2972 15.6732 15.243 14.9654 14.9178C14.8235 14.8526 14.5883 14.8158 14.2598 14.8072C13.3222 14.7819 12.6267 14.7834 12.1735 14.8117Z" fill="#202020"></path>
</svg>
<svg viewBox="0 0 24 24" fill="none" xmlns="http://www.w3.org/2000/svg" id="linkedin">
<path d="M4.75 1.875C4.18641 1.875 3.64591 2.09888 3.2474 2.4974C2.84888 2.89591 2.625 3.43641 2.625 4C2.625 4.56359 2.84888 5.10409 3.2474 5.5026C3.64591 5.90112 4.18641 6.125 4.75 6.125C5.31359 6.125 5.85409 5.90112 6.2526 5.5026C6.65112 5.10409 6.875 4.56359 6.875 4C6.875 3.43641 6.65112 2.89591 6.2526 2.4974C5.85409 2.09888 5.31359 1.875 4.75 1.875ZM2.75 7.875C2.71685 7.875 2.68505 7.88817 2.66161 7.91161C2.63817 7.93505 2.625 7.96685 2.625 8V21C2.625 21.069 2.681 21.125 2.75 21.125H6.75C6.78315 21.125 6.81495 21.1118 6.83839 21.0884C6.86183 21.0649 6.875 21.0332 6.875 21V8C6.875 7.96685 6.86183 7.93505 6.83839 7.91161C6.81495 7.88817 6.78315 7.875 6.75 7.875H2.75ZM9.25 7.875C9.21685 7.875 9.18505 7.88817 9.16161 7.91161C9.13817 7.93505 9.125 7.96685 9.125 8V21C9.125 21.069 9.181 21.125 9.25 21.125H13.25C13.2832 21.125 13.3149 21.1118 13.3384 21.0884C13.3618 21.0649 13.375 21.0332 13.375 21V14C13.375 13.5027 13.5725 13.0258 13.9242 12.6742C14.2758 12.3225 14.7527 12.125 15.25 12.125C15.7473 12.125 16.2242 12.3225 16.5758 12.6742C16.9275 13.0258 17.125 13.5027 17.125 14V21C17.125 21.069 17.181 21.125 17.25 21.125H21.25C21.2832 21.125 21.3149 21.1118 21.3384 21.0884C21.3618 21.0649 21.375 21.0332 21.375 21V12.38C21.375 9.953 19.265 8.055 16.85 8.274C16.1028 8.34202 15.3709 8.52694 14.681 8.822L13.375 9.382V8C13.375 7.96685 13.3618 7.93505 13.3384 7.91161C13.3149 7.88817 13.2832 7.875 13.25 7.875H9.25Z" fill="white"></path>
</svg>
<svg viewBox="0 0 24 24" fill="none" xmlns="http://www.w3.org/2000/svg" id="send">
<path fill-rule="evenodd" clip-rule="evenodd" d="M19.2111 2.06722L3.70001 5.94499C1.63843 6.46039 1.38108 9.28612 3.31563 10.1655L8.09467 12.3378C9.07447 12.7831 10.1351 12.944 11.1658 12.8342C11.056 13.8649 11.2168 14.9255 11.6622 15.9053L13.8345 20.6843C14.7139 22.6189 17.5396 22.3615 18.055 20.3L21.9327 4.78886C22.3437 3.14517 20.8548 1.6563 19.2111 2.06722ZM8.92228 10.517C9.85936 10.943 10.9082 10.9755 11.8474 10.6424C12.2024 10.5165 12.5417 10.3383 12.8534 10.1094C12.8968 10.0775 12.9397 10.0446 12.982 10.0108L15.2708 8.17974C15.6351 7.88831 16.1117 8.36491 15.8202 8.7292L13.9892 11.018C13.9553 11.0603 13.9225 11.1032 13.8906 11.1466C13.6617 11.4583 13.4835 11.7976 13.3576 12.1526C13.0244 13.0918 13.057 14.1406 13.4829 15.0777L15.6552 19.8567C15.751 20.0673 16.0586 20.0393 16.1147 19.8149L19.9925 4.30379C20.0372 4.12485 19.8751 3.96277 19.6962 4.00751L4.18509 7.88528C3.96065 7.94138 3.93264 8.249 4.14324 8.34473L8.92228 10.517Z" fill="#0F1729"></path>
</svg>
<svg viewBox="0 0 24 24" fill="none" xmlns="http://www.w3.org/2000/svg" id="youtube">
<path d="M10 15L15.19 12L10 9V15ZM21.56 7.17C21.69 7.64 21.78 8.27 21.84 9.07C21.91 9.87 21.94 10.56 21.94 11.16L22 12C22 14.19 21.84 15.8 21.56 16.83C21.31 17.73 20.73 18.31 19.83 18.56C19.36 18.69 18.5 18.78 17.18 18.84C15.88 18.91 14.69 18.94 13.59 18.94L12 19C7.81 19 5.2 18.84 4.17 18.56C3.27 18.31 2.69 17.73 2.44 16.83C2.31 16.36 2.22 15.73 2.16 14.93C2.09 14.13 2.06 13.44 2.06 12.84L2 12C2 9.81 2.16 8.2 2.44 7.17C2.69 6.27 3.27 5.69 4.17 5.44C4.64 5.31 5.5 5.22 6.82 5.16C8.12 5.09 9.31 5.06 10.41 5.06L12 5C16.19 5 18.8 5.16 19.83 5.44C20.73 5.69 21.31 6.27 21.56 7.17Z" fill="white"></path>
</svg>
</svg>